<svg width="25" height="26" viewBox="0 0 25 26" fill="none" xmlns="http://www.w3.org/2000/svg">
<g id="005-accept" clip-path="url(#clip0_1081_664)">
<path id="Vector" d="M8.4665 5.00879H3.90828C3.48643 5.00879 3.14453 5.34978 3.14453 5.77051C3.14453 6.19124 3.48643 6.53223 3.90828 6.53223H8.4665C8.88815 6.53223 9.23025 6.19124 9.23025 5.77051C9.23025 5.34978 8.88815 5.00879 8.4665 5.00879Z" fill="#D0A144"/>
<path id="Vector_2" d="M8.4665 8.05591H3.90828C3.48643 8.05591 3.14453 8.3969 3.14453 8.81763C3.14453 9.23836 3.48643 9.57935 3.90828 9.57935H8.4665C8.88815 9.57935 9.23025 9.23836 9.23025 8.81763C9.23025 8.3969 8.88815 8.05591 8.4665 8.05591Z" fill="#D0A144"/>
<path id="Vector_3" d="M8.4665 11.103H3.90828C3.48643 11.103 3.14453 11.444 3.14453 11.8647C3.14453 12.2855 3.48643 12.6265 3.90828 12.6265H8.4665C8.88815 12.6265 9.23025 12.2855 9.23025 11.8647C9.23025 11.444 8.88815 11.103 8.4665 11.103Z" fill="#D0A144"/>
<path id="Vector_4" d="M8.4665 14.1501H3.90828C3.48643 14.1501 3.14453 14.4911 3.14453 14.9119C3.14453 15.3326 3.48643 15.6736 3.90828 15.6736H8.4665C8.88815 15.6736 9.23025 15.3326 9.23025 14.9119C9.23025 14.4911 8.88815 14.1501 8.4665 14.1501Z" fill="#D0A144"/>
<path id="Vector_5" d="M8.4665 17.2483H3.90828C3.48643 17.2483 3.14453 17.5895 3.14453 18.01C3.14453 18.4307 3.48643 18.7717 3.90828 18.7717H8.4665C8.88815 18.7717 9.23025 18.4307 9.23025 18.01C9.23025 17.5895 8.88815 17.2483 8.4665 17.2483Z" fill="#D0A144"/>
<path id="Vector_6" d="M11.0313 6.53223H15.5895C16.0114 6.53223 16.3533 6.19124 16.3533 5.77051C16.3533 5.34978 16.0114 5.00879 15.5895 5.00879H11.0313C10.6097 5.00879 10.2676 5.34978 10.2676 5.77051C10.2676 6.19124 10.6097 6.53223 11.0313 6.53223Z" fill="#D0A144"/>
<path id="Vector_7" d="M11.0313 9.57935H15.5895C16.0114 9.57935 16.3533 9.23836 16.3533 8.81763C16.3533 8.3969 16.0114 8.05591 15.5895 8.05591H11.0313C10.6097 8.05591 10.2676 8.3969 10.2676 8.81763C10.2676 9.23836 10.6097 9.57935 11.0313 9.57935Z" fill="#D0A144"/>
<path id="Vector_8" d="M13.9905 11.8647C13.9905 11.444 13.6486 11.103 13.2267 11.103H11.0313C10.6097 11.103 10.2676 11.444 10.2676 11.8647C10.2676 12.2855 10.6097 12.6265 11.0313 12.6265H13.2267C13.6486 12.6265 13.9905 12.2855 13.9905 11.8647Z" fill="#D0A144"/>
<path id="Vector_9" d="M21.2258 17.5697C20.8968 17.3065 20.4163 17.359 20.1522 17.6871L18.1851 20.133L16.9673 19.253C16.6258 19.0061 16.148 19.0822 15.9006 19.4228C15.6532 19.7636 15.7296 20.2399 16.0711 20.4866L17.8776 21.7921C18.0129 21.8897 18.1696 21.9371 18.3253 21.9371C18.5495 21.9371 18.771 21.8389 18.9214 21.6518L21.3437 18.6405C21.6077 18.3124 21.5549 17.8329 21.2258 17.5697Z" fill="#D0A144"/>
<path id="Vector_10" d="M23.1561 15.2314C22.1612 14.2217 20.8829 13.5854 19.4978 13.3979V3.0677C19.4978 1.37625 18.1179 0 16.422 0H3.07607C1.37992 0 0 1.37625 0 3.0677V20.7128C0 22.4044 1.37992 23.7807 3.07587 23.7807H13.8099C15.0178 25.1958 16.7545 26 18.6334 26C22.131 26 24.9763 23.1602 24.9763 19.6696C24.9763 17.9986 24.3299 16.4224 23.1561 15.2314ZM1.52749 20.7128V3.0677C1.52749 2.21632 2.22223 1.52344 3.07607 1.52344H16.422C17.2758 1.52344 17.9703 2.21632 17.9703 3.0677V13.3737C14.7833 13.7056 12.2906 16.4023 12.2906 19.6696C12.2906 20.5751 12.4799 21.4507 12.8431 22.2571H3.07607C2.22223 22.2571 1.52749 21.5644 1.52749 20.7128ZM18.6334 24.4766C17.1081 24.4766 15.7059 23.7781 14.7861 22.5606C14.1528 21.7221 13.8179 20.7225 13.8179 19.6696C13.8179 17.0191 15.9782 14.8626 18.6334 14.8626C18.6585 14.8626 18.6838 14.863 18.7088 14.8634L18.7206 14.8636C19.9881 14.886 21.1765 15.3958 22.0667 16.2992C22.958 17.2035 23.4488 18.4007 23.4488 19.6696C23.4488 22.3201 21.2887 24.4766 18.6334 24.4766Z" fill="#D0A144"/>
</g>
<defs>
<clipPath id="clip0_1081_664">
<rect width="25" height="26" fill="white"/>
</clipPath>
</defs>
</svg>
