<svg width="24" height="24" viewBox="0 0 24 24" fill="none" xmlns="http://www.w3.org/2000/svg">
<g id="001-auction" clip-path="url(#clip0_1081_651)">
<g id="Group">
<g id="Group_2">
<path id="Vector" d="M5.52093 8.17251C5.33812 7.9897 5.04093 7.9897 4.85816 8.17251C4.67488 8.35579 4.67488 8.65251 4.85816 8.83532C5.04098 9.0186 5.33816 9.0186 5.52093 8.83532C5.70416 8.65251 5.70416 8.35579 5.52093 8.17251Z" fill="#D0A144"/>
</g>
</g>
<g id="Group_3">
<g id="Group_4">
<path id="Vector_2" d="M11.8687 20.9867C12.0754 20.7067 12.1871 20.3695 12.1871 20.0148C12.1871 19.1103 11.4511 18.3743 10.5465 18.3743H2.57803C2.13961 18.3743 1.72763 18.5449 1.41792 18.8547C1.10808 19.1644 0.937453 19.5764 0.937453 20.0148C0.937453 20.3781 1.05633 20.714 1.25691 20.9861C0.510516 21.3785 0 22.1613 0 23.0616V23.5303C0 23.7892 0.209906 23.9991 0.46875 23.9991H12.6558C12.9146 23.9991 13.1245 23.7892 13.1245 23.5303V23.0616C13.1245 22.1618 12.6145 21.3793 11.8687 20.9867ZM2.08078 19.5175C2.21348 19.3848 2.39011 19.3117 2.57803 19.3117H10.5465C10.9342 19.3117 11.2496 19.6271 11.2496 20.0148C11.2496 20.2027 11.1765 20.3793 11.0437 20.512C10.911 20.6448 10.7344 20.7179 10.5465 20.7179H2.57803C2.19033 20.7179 1.87495 20.4025 1.87495 20.0148C1.87495 19.8269 1.94803 19.6503 2.08078 19.5175ZM0.937453 23.0616C0.937453 22.2862 1.5683 21.6554 2.34366 21.6554H2.57803H10.5465H10.7809C11.5562 21.6554 12.1871 22.2862 12.1871 23.0616H0.937453Z" fill="#D0A144"/>
</g>
</g>
<g id="Group_5">
<g id="Group_6">
<path id="Vector_3" d="M23.5667 19.6933C23.4075 19.4466 23.2175 19.2284 23.002 19.0448L20.8118 17.1345C20.7947 17.1089 20.775 17.0845 20.7523 17.0618C20.7143 17.0238 20.6711 16.9942 20.6253 16.9719L19.3007 15.8167L13.17 10.4687C13.4209 10.2063 13.5591 9.86325 13.5591 9.49842C13.5591 9.12258 13.4128 8.76937 13.1469 8.5035C13.0309 8.38767 12.8991 8.29659 12.7583 8.22989L13.3255 7.6627C13.484 7.70484 13.6469 7.72641 13.8099 7.72641C14.29 7.72636 14.77 7.54364 15.1355 7.1782C15.4898 6.82397 15.6849 6.35311 15.6849 5.85234C15.6849 5.35158 15.4898 4.88072 15.1355 4.52648L11.1583 0.549328C10.804 0.195094 10.3331 0 9.83223 0C9.33156 0 8.8608 0.195094 8.50661 0.549328C8.01705 1.03889 7.85589 1.734 8.02211 2.35941L2.36312 8.01834C2.20675 7.97677 2.04405 7.95483 1.87783 7.95483C1.37683 7.95483 0.906156 8.14978 0.552203 8.50369C-0.178859 9.23475 -0.178859 10.4243 0.552203 11.1554L4.52941 15.1327C4.89498 15.4982 5.37512 15.681 5.85527 15.681C6.33545 15.681 6.81559 15.4982 7.18117 15.1327C7.67073 14.643 7.83189 13.948 7.66567 13.3226L8.23169 12.7565C8.2997 12.8985 8.392 13.0296 8.50666 13.1442C8.77225 13.4098 9.12536 13.5561 9.50111 13.5561C9.86556 13.5561 10.2085 13.4182 10.4712 13.1675L17.0012 20.67C17.0192 20.6981 17.0402 20.7249 17.0648 20.7495C17.0732 20.7578 17.0821 20.7655 17.0909 20.7731L19.0367 23.0087C19.0851 23.0658 19.1368 23.122 19.1905 23.1757C19.7249 23.7099 20.4308 23.9998 21.1719 23.9998C21.3025 23.9998 21.4344 23.9908 21.5665 23.9725C22.4491 23.8504 23.2119 23.3224 23.6591 22.5237C24.1491 21.6484 24.1127 20.5372 23.5667 19.6933ZM9.16956 1.21223C9.3467 1.03509 9.58211 0.9375 9.83228 0.9375C10.0828 0.9375 10.3183 1.03509 10.4954 1.21223L14.4727 5.18944C14.6498 5.36658 14.7474 5.60203 14.7474 5.85239C14.7474 6.10275 14.6498 6.3382 14.4726 6.51534C14.1072 6.88083 13.5126 6.88083 13.1472 6.51534L9.1698 2.53795C9.1697 2.53786 9.16966 2.53781 9.16956 2.53772C8.80408 2.17228 8.80408 1.57767 9.16956 1.21223ZM6.51827 14.4697C6.15273 14.8353 5.55784 14.8353 5.19231 14.4697L1.21511 10.4925C0.849531 10.127 0.849531 9.53222 1.21511 9.16659C1.39192 8.98973 1.62733 8.89233 1.87783 8.89233C2.12828 8.89233 2.36355 8.98969 2.54031 9.16641L6.51822 13.1443C6.88375 13.5097 6.88375 14.1044 6.51827 14.4697ZM8.4918 11.1707L7.18112 12.4814L3.2035 8.50378L8.50661 3.20058L12.4842 7.1782L11.1711 8.49131C11.1669 8.49534 11.1627 8.49928 11.1582 8.50373L8.50797 11.154C8.50248 11.1594 8.49719 11.165 8.4918 11.1707ZM10.1655 12.1485C10.1646 12.1495 10.1637 12.1504 10.1627 12.1513L9.83266 12.4814C9.74411 12.5699 9.62641 12.6187 9.50106 12.6187C9.37576 12.6187 9.25801 12.5699 9.16951 12.4814C9.08087 12.3928 9.03208 12.2749 9.03208 12.1495C9.03208 12.0268 9.07891 11.9114 9.16389 11.8243L11.8264 9.16172C12.0089 8.98425 12.304 8.98645 12.4843 9.16659C12.5729 9.25519 12.6217 9.37303 12.6217 9.49842C12.6217 9.62372 12.573 9.74123 12.4842 9.82978L12.1561 10.158C12.1538 10.1602 12.1516 10.1624 12.1494 10.1647L10.1655 12.1485ZM11.1362 12.5036L12.5062 11.1337L18.3066 16.1931L16.19 18.3097L11.1362 12.5036ZM16.8069 19.0186L19.0147 16.8108L19.7228 17.4285L17.4238 19.7275L16.8069 19.0186ZM22.8412 22.0658C22.5387 22.6059 22.0272 22.9624 21.438 23.0439C20.8501 23.1253 20.2724 22.9317 19.8533 22.5127C19.8172 22.4767 19.7827 22.4392 19.7506 22.4011C19.7491 22.3993 19.7476 22.3975 19.746 22.3958L18.0407 20.4363L20.4309 18.0461L22.3879 19.7531C22.3894 19.7544 22.3909 19.7557 22.3924 19.757C22.5389 19.8816 22.6689 20.0311 22.7792 20.202C23.1337 20.7498 23.1585 21.4988 22.8412 22.0658Z" fill="#D0A144"/>
</g>
</g>
<g id="Group_7">
<g id="Group_8">
<path id="Vector_4" d="M8.83539 4.85774C8.6523 4.6747 8.35558 4.6747 8.17248 4.85774L6.18367 6.84655C6.00063 7.0296 6.00063 7.32641 6.18367 7.50941C6.27522 7.60096 6.39517 7.64671 6.51512 7.64671C6.63508 7.64671 6.75503 7.60091 6.84658 7.50941L8.83539 5.5206C9.01844 5.3376 9.01844 5.04084 8.83539 4.85774Z" fill="#D0A144"/>
</g>
</g>
</g>
<defs>
<clipPath id="clip0_1081_651">
<rect width="24" height="24" fill="white"/>
</clipPath>
</defs>
</svg>
